<?xml version="1.0" standalone="no"?>
<!DOCTYPE svg PUBLIC "-//W3C//DTD SVG 20010904//EN"
 "http://www.w3.org/TR/2001/REC-SVG-20010904/DTD/svg10.dtd">
<svg version="1.0" xmlns="http://www.w3.org/2000/svg"
 width="1080.000000pt" height="1080.000000pt" viewBox="0 0 1080.000000 1080.000000"
 preserveAspectRatio="xMidYMid meet">
<metadata>
Created by potrace 1.14, written by Peter Selinger 2001-2017
</metadata>
<g transform="translate(0.000000,1080.000000) scale(0.100000,-0.100000)"
fill="#000000" stroke="none">
<path d="M8050 6840 c-158 -32 -349 -69 -440 -86 -110 -21 -322 -62 -510 -99
-124 -24 -241 -47 -260 -50 -19 -3 -42 -8 -50 -10 -8 -2 -31 -7 -50 -10 -19
-3 -89 -17 -155 -30 -66 -13 -181 -35 -255 -49 -74 -14 -146 -28 -160 -31 -14
-3 -106 -21 -206 -40 -99 -19 -239 -46 -310 -60 -109 -22 -150 -30 -184 -34
-3 -1 -5 -43 -5 -93 1 -92 1 -93 25 -92 52 3 207 15 240 19 19 2 80 7 135 11
102 6 117 8 265 20 47 4 101 8 120 9 70 5 216 16 255 20 22 3 78 7 125 10 47
3 105 8 130 10 47 4 141 11 263 20 87 7 174 14 242 20 28 3 88 7 135 10 86 5
167 12 250 20 25 2 86 7 135 10 50 3 110 8 135 10 25 2 81 7 125 10 44 3 107
8 140 11 33 2 85 6 115 9 30 2 91 6 135 9 44 4 272 8 508 11 l427 4 1 -67 c6
-813 10 -1249 13 -1257 2 -7 225 -10 652 -9 357 1 652 2 657 3 8 1 3 241 -6
278 -18 75 -64 130 -134 164 -51 25 -26 24 -458 17 -137 -3 -255 -3 -262 0 -9
3 -11 30 -8 95 5 118 18 576 17 603 -1 19 15 24 196 62 108 23 237 49 285 58
171 33 282 109 340 232 27 57 31 77 31 156 1 50 -2 103 -7 119 l-7 27 -1223
-1 -1222 -2 -185 -37z"/>
<path d="M6025 6153 c-177 -28 -277 -90 -335 -208 -33 -68 -35 -198 -4 -266
56 -122 142 -165 480 -242 34 -8 64 -39 64 -67 0 -45 -37 -64 -124 -64 -88 0
-143 27 -176 86 -21 37 -25 39 -54 34 -17 -4 -71 -14 -121 -22 -49 -9 -97 -18
-105 -19 -8 -2 -21 -4 -27 -4 -37 -2 23 -134 92 -203 90 -90 206 -130 376
-130 279 0 464 134 477 346 7 132 -60 246 -178 300 -30 14 -122 42 -204 62
-167 42 -204 63 -192 107 18 73 184 68 244 -7 11 -15 22 -32 24 -37 3 -9 261
61 275 74 8 8 -38 85 -77 130 -42 47 -129 98 -200 117 -42 11 -192 20 -235 13z"/>
<path d="M426 6123 c-3 -10 -51 -164 -107 -343 -55 -179 -116 -374 -134 -435
-18 -60 -45 -146 -59 -190 -14 -44 -26 -82 -26 -85 0 -3 60 -5 134 -5 l135 -1
16 56 c9 30 22 71 28 90 6 19 11 37 12 40 2 23 25 27 154 27 l139 0 21 -71
c11 -39 23 -83 27 -99 3 -15 11 -30 18 -34 6 -4 82 -8 169 -8 133 0 157 2 157
14 0 14 -19 77 -130 426 -15 50 -47 151 -70 225 -23 74 -61 196 -84 270 l-43
135 -176 3 c-161 2 -176 1 -181 -15z m188 -458 c20 -71 36 -135 36 -140 0 -7
-28 -10 -77 -9 -43 1 -79 2 -79 3 -1 1 9 36 22 79 13 42 24 79 24 82 1 13 33
120 36 117 2 -1 19 -61 38 -132z"/>
<path d="M1213 5603 l2 -538 375 0 375 0 2 132 3 133 -213 2 -212 3 0 403 0
402 -167 0 -167 0 2 -537z"/>
<path d="M2079 6123 c-1 -23 -1 -1035 0 -1048 1 -6 133 -10 376 -10 351 0 375
1 376 17 0 10 1 69 2 131 l0 112 -211 3 -212 2 0 405 0 405 -165 0 c-150 0
-165 -2 -166 -17z"/>
<path d="M2946 5613 c1 -291 2 -533 3 -538 1 -7 60 -10 164 -10 l162 0 1 538
2 537 -167 0 -166 0 1 -527z"/>
<path d="M3462 5603 l3 -538 403 0 402 0 0 127 c0 95 -3 128 -12 129 -7 0
-115 1 -240 1 -258 1 -234 -9 -234 103 l1 70 170 2 c94 0 182 2 196 2 l27 1
-2 118 -1 117 -180 2 c-99 0 -187 2 -195 2 -13 1 -16 15 -15 74 l1 72 242 3
242 2 0 125 0 125 -405 0 -405 0 2 -537z"/>
<path d="M4399 6139 c-4 -12 -3 -1069 1 -1070 3 -1 113 -2 245 -3 347 -3 431
19 554 143 106 106 152 224 152 391 0 127 -30 235 -90 324 -34 51 -114 127
-156 149 -104 55 -132 59 -427 64 -153 3 -279 3 -279 2z m489 -266 c87 -43
134 -197 109 -360 -9 -58 -29 -103 -66 -145 -41 -46 -75 -60 -146 -56 l-57 3
0 190 c1 105 1 236 2 291 l0 101 61 -3 c33 -2 77 -11 97 -21z"/>
<path d="M6611 6010 l0 -130 112 0 112 0 0 -407 0 -407 158 -1 157 -1 0 408 0
408 110 0 109 0 3 63 c2 34 2 92 0 130 l-4 67 -378 0 -379 0 0 -130z"/>
<path d="M7462 5603 l3 -538 403 0 402 0 0 130 0 130 -242 0 -243 0 0 85 0 85
190 2 c105 1 193 2 196 2 3 1 5 54 5 119 l-1 117 -190 2 c-104 1 -192 2 -195
2 -5 1 -5 118 -1 144 0 4 109 7 241 7 l240 0 0 125 0 125 -405 0 -405 0 2
-537z"/>
<path d="M8397 6133 c-2 -5 -3 -246 -3 -538 l1 -530 405 0 405 0 0 128 c0 78
-4 127 -10 128 -5 0 -115 1 -243 1 l-233 1 3 86 3 86 188 1 c103 1 190 4 194
8 5 5 8 188 4 228 -1 3 -81 6 -178 6 -98 0 -186 1 -195 1 -16 1 -18 12 -18 76
l0 75 243 2 242 3 0 123 0 122 -402 0 c-221 0 -404 -3 -406 -7z"/>
<path d="M8303 4601 c-85 -26 -136 -69 -174 -147 -32 -65 -34 -75 -34 -174 0
-97 2 -110 30 -163 34 -68 68 -100 145 -136 47 -22 68 -26 150 -26 81 1 103 5
153 28 32 14 71 36 87 47 l29 21 0 119 0 120 -139 0 -140 0 0 -40 0 -40 95 0
c91 0 95 -1 96 -22 2 -33 -1 -81 -6 -95 -8 -22 -99 -57 -162 -61 -159 -11
-253 80 -255 248 -3 167 97 270 249 257 79 -6 121 -30 151 -89 l23 -46 39 10
38 10 -13 39 c-22 62 -61 105 -118 129 -66 29 -172 34 -244 11z"/>
<path d="M1486 4602 c-2 -4 -4 -150 -4 -325 l1 -319 166 4 c180 4 219 14 274
66 84 80 114 255 70 402 -23 74 -90 143 -158 163 -52 15 -341 22 -349 9z m358
-106 c58 -44 80 -103 80 -212 0 -78 -4 -98 -27 -147 -43 -87 -95 -105 -297
-98 l-35 1 2 227 c1 126 2 236 3 247 0 17 9 18 118 15 113 -4 120 -5 156 -33z"/>
<path d="M2467 4602 c-2 -4 -3 -149 -3 -322 l1 -315 243 -3 243 -2 -3 37 -3
38 -175 2 c-96 1 -185 2 -197 2 -22 1 -23 4 -23 110 l0 108 153 1 c230 1 207
-3 205 37 -1 19 -6 36 -12 36 -6 1 -81 3 -166 4 -85 1 -161 3 -167 4 -10 1
-13 27 -13 96 l0 95 190 0 190 0 0 40 0 40 -230 -1 c-126 0 -231 -4 -233 -7z"/>
<path d="M3349 4607 c-1 -1 -2 -19 -3 -39 l-2 -38 106 0 107 0 0 -282 -1 -283
39 -3 c21 -2 41 1 44 6 3 6 6 134 5 286 l-1 276 107 0 108 0 -3 33 c-2 17 -3
35 -4 39 -1 6 -498 10 -502 5z"/>
<path d="M4266 4298 c-66 -172 -121 -319 -123 -325 -4 -9 8 -13 40 -13 l45 0
32 93 c19 50 35 94 37 97 2 2 64 4 138 5 l135 1 21 -56 c57 -155 46 -140 100
-140 l49 0 -19 48 c-11 26 -58 144 -106 262 -49 118 -99 242 -112 276 l-24 61
-47 2 -48 1 -118 -312z m222 74 c29 -78 52 -143 52 -145 0 -1 -47 -2 -105 -2
-73 -1 -105 3 -105 11 0 6 18 58 39 116 22 57 42 121 46 142 4 20 11 34 15 29
4 -4 30 -72 58 -151z"/>
<path d="M5151 4283 l0 -323 43 0 43 0 0 324 0 324 -43 -1 -42 0 -1 -324z"/>
<path d="M5725 4602 c-7 -4 -11 -116 -10 -324 l0 -318 202 0 202 0 -3 38 -2
37 -157 0 -157 0 0 288 0 287 -32 0 c-18 0 -38 -4 -43 -8z"/>
<path d="M6566 4601 c-2 -3 -4 -149 -3 -323 l0 -318 43 0 43 0 -1 324 0 325
-39 -1 c-22 0 -41 -3 -43 -7z"/>
<path d="M7130 4284 l0 -324 43 0 42 0 -2 251 -1 252 31 -45 c18 -25 94 -138
170 -252 l137 -206 45 0 45 0 0 325 0 325 -34 0 c-18 0 -38 -6 -42 -12 -5 -7
-9 -120 -8 -250 1 -224 0 -236 -16 -215 -9 12 -86 124 -170 249 l-153 227 -43
-1 -44 -1 0 -323z"/>
</g>
</svg>
